<svg width="7" height="12" viewBox="0 0 7 12" fill="none" xmlns="http://www.w3.org/2000/svg">
<path d="M6.63891 6.01266L1.58397 11.0017C1.4814 11.1042 1.36053 11.1555 1.22133 11.1555C1.08214 11.1555 0.961258 11.1042 0.858694 11.0017L0.551002 10.694C0.448438 10.5914 0.397156 10.4705 0.397156 10.3313C0.397156 10.1921 0.448438 10.0713 0.551002 9.9687L4.94661 5.63903L0.551002 1.33134C0.448438 1.22878 0.397156 1.1079 0.397156 0.968704C0.397156 0.82951 0.448438 0.708631 0.551002 0.606067L0.858694 0.298374C0.961258 0.19581 1.08214 0.144528 1.22133 0.144528C1.36053 0.144528 1.4814 0.19581 1.58397 0.298374L6.63891 5.28739C6.74148 5.38995 6.79276 5.51083 6.79276 5.65002C6.79276 5.78922 6.74148 5.9101 6.63891 6.01266Z" fill="black"/>
</svg>
