<svg width="7" height="12" viewBox="0 0 7 12" fill="none" xmlns="http://www.w3.org/2000/svg">
<path d="M0.760963 5.28739L5.81591 0.298374C5.91847 0.19581 6.04301 0.144528 6.18953 0.144528C6.33605 0.144528 6.4606 0.19581 6.56316 0.298374L6.87085 0.606067C6.95877 0.708631 7.00272 0.82951 7.00272 0.968704C7.00272 1.1079 6.95877 1.22878 6.87085 1.33134L2.47525 5.66101L6.84888 9.9687C6.95144 10.0713 7.00272 10.1921 7.00272 10.3313C7.00272 10.4705 6.95144 10.5914 6.84888 10.694L6.54118 11.0017C6.45327 11.1042 6.33605 11.1555 6.18953 11.1555C6.04301 11.1555 5.91847 11.1042 5.81591 11.0017L0.760963 6.01266C0.658399 5.9101 0.607117 5.78922 0.607117 5.65002C0.607117 5.51083 0.658399 5.38995 0.760963 5.28739Z" fill="black"/>
</svg>
