<svg width="21" height="21" viewBox="0 0 21 21" fill="none" xmlns="http://www.w3.org/2000/svg">
<path d="M0.809937 1.129C0.809937 0.849281 0.906507 0.61285 1.09965 0.41971C1.29279 0.22657 1.52922 0.129999 1.80894 0.129999H3.80694C4.0467 0.129999 4.25982 0.206591 4.4463 0.35977C4.63278 0.512951 4.746 0.702761 4.78596 0.929201L5.02572 2.128H19.8109C19.9841 2.128 20.1473 2.17129 20.3004 2.25787C20.4536 2.34445 20.5735 2.461 20.6601 2.60752C20.7467 2.75404 20.7966 2.91388 20.8099 3.08704C20.8233 3.2602 20.79 3.4267 20.71 3.58654L16.6941 11.5786C16.6141 11.7517 16.4943 11.8882 16.3344 11.9881C16.1746 12.088 16.0014 12.138 15.8149 12.138H6.22452L4.22652 14.136H15.8149C16.4676 14.136 17.057 14.3291 17.5832 14.7154C18.1093 15.1017 18.4723 15.6045 18.6721 16.2239C18.8719 16.8433 18.8652 17.4627 18.6521 18.082C18.439 18.7014 18.066 19.2009 17.5332 19.5806C17.0004 19.9602 16.4077 20.1433 15.755 20.13C15.1023 20.1167 14.5162 19.9136 13.9967 19.5206C13.4773 19.1277 13.1243 18.6182 12.9378 17.9921C12.7513 17.3661 12.7646 16.7467 12.9778 16.134H8.6421C8.86854 16.7734 8.87521 17.416 8.66208 18.0621C8.44896 18.7081 8.05935 19.2242 7.49325 19.6105C6.92715 19.9968 6.30444 20.17 5.62512 20.13C4.9458 20.09 4.34973 19.847 3.83691 19.4007C3.32409 18.9545 3.00108 18.3951 2.86788 17.7224C2.73468 17.0497 2.82126 16.4071 3.12762 15.7943C2.79462 15.5812 2.5482 15.2915 2.38836 14.9252C2.22852 14.5589 2.1819 14.176 2.2485 13.7764C2.3151 13.3768 2.50158 13.0238 2.80794 12.7174L4.72602 10.7993L2.98776 2.128H1.80894C1.52922 2.128 1.29279 2.03143 1.09965 1.83829C0.906507 1.64515 0.809937 1.40872 0.809937 1.129ZM6.62412 10.12H15.1956L18.1926 4.126H5.42532L6.62412 10.12ZM5.80494 16.134C5.53854 16.134 5.30544 16.2306 5.10564 16.4237C4.90584 16.6168 4.80594 16.8533 4.80594 17.133C4.80594 17.4127 4.90584 17.6491 5.10564 17.8423C5.30544 18.0354 5.54187 18.132 5.81493 18.132C6.08799 18.132 6.32109 18.0354 6.51423 17.8423C6.70737 17.6491 6.80394 17.4127 6.80394 17.133C6.80394 16.8533 6.70737 16.6168 6.51423 16.4237C6.32109 16.2306 6.08466 16.134 5.80494 16.134ZM15.8149 16.134C15.5352 16.134 15.2988 16.2306 15.1056 16.4237C14.9125 16.6168 14.8159 16.8533 14.8159 17.133C14.8159 17.4127 14.9125 17.6491 15.1056 17.8423C15.2988 18.0354 15.5319 18.132 15.8049 18.132C16.078 18.132 16.3144 18.0354 16.5142 17.8423C16.714 17.6491 16.8139 17.4127 16.8139 17.133C16.8139 16.8533 16.714 16.6168 16.5142 16.4237C16.3144 16.2306 16.0813 16.134 15.8149 16.134Z" fill="black"/>
</svg>
