<svg width="23" height="22" viewBox="0 0 23 22" fill="none" xmlns="http://www.w3.org/2000/svg">
<path d="M20.074 6.32781H18.3817C18.8213 5.69777 19.0411 5.00912 19.0411 4.26187C19.0411 3.63183 18.8982 3.05308 18.6125 2.52561C18.3268 1.99813 17.9385 1.58055 17.4476 1.27286C16.9568 0.965168 16.4147 0.811321 15.8213 0.811321C15.2279 0.811321 14.6967 0.94319 14.2279 1.20693C13.759 1.47066 13.2755 1.91022 12.7773 2.52561C12.3231 3.06773 11.7737 3.87359 11.129 4.94319C10.4989 3.87359 9.9568 3.06773 9.50259 2.52561C9.00442 1.91022 8.52091 1.47066 8.05204 1.20693C7.58318 0.94319 7.05204 0.811321 6.45863 0.811321C5.86523 0.811321 5.3231 0.965168 4.83226 1.27286C4.34142 1.58055 3.95314 1.99813 3.66743 2.52561C3.38171 3.05308 3.23885 3.63183 3.23885 4.26187C3.23885 5.00912 3.45864 5.69777 3.8982 6.32781H2.20589C1.63446 6.32781 1.14728 6.52927 0.744349 6.9322C0.341419 7.33513 0.139954 7.81498 0.139954 8.37176V12.5036C0.139954 12.6941 0.205888 12.8553 0.337756 12.9871C0.469624 13.119 0.630796 13.1849 0.821272 13.1849H1.52457V19.3828C1.52457 19.9542 1.72603 20.4414 2.12896 20.8443C2.5319 21.2472 3.01175 21.4487 3.56853 21.4487H18.7114C19.2682 21.4487 19.748 21.2472 20.1509 20.8443C20.5539 20.4414 20.7553 19.9542 20.7553 19.3828V13.1849H21.4586C21.6491 13.1849 21.8103 13.119 21.9422 12.9871C22.074 12.8553 22.14 12.6941 22.14 12.5036V8.37176C22.14 7.81498 21.9385 7.33513 21.5356 6.9322C21.1326 6.52927 20.6454 6.32781 20.074 6.32781ZM12.0081 6.15198C12.6967 4.99447 13.2682 4.12268 13.7224 3.5366C14.1473 2.99447 14.5356 2.62085 14.8872 2.41572C15.1509 2.2692 15.4733 2.19594 15.8542 2.19594C16.3524 2.19594 16.781 2.3974 17.14 2.80033C17.4989 3.20326 17.6784 3.69044 17.6784 4.26187C17.6784 4.8333 17.4989 5.32048 17.14 5.72341C16.781 6.12634 16.3524 6.32781 15.8542 6.32781H11.9202L12.0081 6.15198ZM6.42567 2.19594C6.80662 2.19594 7.13629 2.2692 7.41468 2.41572C7.75168 2.62085 8.13263 2.99447 8.55754 3.5366C9.01175 4.12268 9.58318 4.99447 10.2718 6.15198L10.3597 6.32781H6.42567C5.9275 6.32781 5.49893 6.12634 5.13995 5.72341C4.78098 5.32048 4.60149 4.8333 4.60149 4.26187C4.60149 3.69044 4.78098 3.20326 5.13995 2.80033C5.49893 2.3974 5.9275 2.19594 6.42567 2.19594ZM8.38171 20.0641H3.56853C3.3927 20.0641 3.23519 19.9981 3.096 19.8663C2.9568 19.7344 2.88721 19.5732 2.88721 19.3828V13.1849H8.38171V20.0641ZM8.38171 11.8223H1.52457V8.37176C1.52457 8.18128 1.5905 8.02011 1.72237 7.88824C1.85424 7.75638 2.01541 7.69044 2.20589 7.69044H8.38171V11.8223ZM12.5136 20.0641H9.76633V7.69044H12.5136V20.0641ZM19.3927 19.3828C19.3927 19.5732 19.3231 19.7344 19.1839 19.8663C19.0447 19.9981 18.8872 20.0641 18.7114 20.0641H13.8982V13.1849H19.3927V19.3828ZM20.7553 11.8223H13.8982V7.69044H20.074C20.2645 7.69044 20.4257 7.75638 20.5575 7.88824C20.6894 8.02011 20.7553 8.18128 20.7553 8.37176V11.8223Z" fill="#FF782C"/>
</svg>
