<svg width="15" height="16" viewBox="0 0 15 16" fill="none" xmlns="http://www.w3.org/2000/svg">
<path d="M12.7317 15.6187H2.37409C1.9585 15.6187 1.60685 15.4748 1.31914 15.1871C1.03143 14.8994 0.887573 14.5477 0.887573 14.1321V3.75851C0.887573 3.35358 1.03143 3.00726 1.31914 2.71955C1.60685 2.43184 1.9585 2.28798 2.37409 2.28798H3.84462V0.80147H5.33113V2.28798H9.77469V0.80147H11.2612V2.28798H12.7317C13.1473 2.28798 13.499 2.43184 13.7867 2.71955C14.0744 3.00726 14.2182 3.35358 14.2182 3.75851V14.1321C14.2182 14.5477 14.0744 14.8994 13.7867 15.1871C13.499 15.4748 13.1473 15.6187 12.7317 15.6187ZM2.37409 6.73154V14.1321H12.7317V6.73154H2.37409ZM2.37409 3.75851V5.24503H12.7317V3.75851H2.37409ZM11.2612 12.6616H9.77469V11.1751H11.2612V12.6616ZM8.28817 12.6616H6.81764V11.1751H8.28817V12.6616ZM5.33113 12.6616H3.84462V11.1751H5.33113V12.6616ZM11.2612 9.68858H9.77469V8.20207H11.2612V9.68858ZM8.28817 9.68858H6.81764V8.20207H8.28817V9.68858ZM5.33113 9.68858H3.84462V8.20207H5.33113V9.68858Z" fill="#FF782C"/>
</svg>
