<svg width="21" height="19" viewBox="0 0 21 19" fill="none" xmlns="http://www.w3.org/2000/svg">
<path d="M11.3673 2.08467L10.5039 2.94801L9.64061 2.08467C8.90917 1.36523 8.05183 0.879601 7.06859 0.627794C6.12131 0.387978 5.16805 0.387978 4.20879 0.627794C3.22554 0.879601 2.3742 1.36523 1.65475 2.08467C0.935302 2.80412 0.44368 3.64947 0.179883 4.62072C-0.0719238 5.568 -0.0719238 6.51527 0.179883 7.46254C0.44368 8.43379 0.935302 9.27914 1.65475 9.99859L9.94637 18.2183C10.1023 18.3741 10.2881 18.4521 10.5039 18.4521C10.7198 18.4521 10.9056 18.3741 11.0615 18.2183L19.3531 9.99859C20.0726 9.27914 20.5642 8.43379 20.828 7.46254C21.0678 6.51527 21.0678 5.568 20.828 4.62072C20.5642 3.64947 20.0726 2.80412 19.3531 2.08467C18.6337 1.36523 17.7764 0.879601 16.7811 0.627794C15.8338 0.375988 14.8806 0.375988 13.9213 0.627794C12.9381 0.879601 12.0867 1.36523 11.3673 2.08467ZM18.238 8.90143L10.5039 16.5635L2.76989 8.90143C2.2423 8.38583 1.88857 7.78029 1.70871 7.08483C1.52885 6.38936 1.52885 5.6969 1.70871 5.00743C1.88857 4.31796 2.2393 3.71542 2.7609 3.19982C3.2825 2.68421 3.89403 2.33348 4.59549 2.14762C5.29695 1.96177 5.99541 1.96177 6.69088 2.14762C7.38634 2.33348 7.99787 2.68421 8.52547 3.19982L9.94637 4.60274C10.1023 4.75862 10.2911 4.83656 10.5129 4.83656C10.7348 4.83656 10.9236 4.75262 11.0795 4.58475L12.4824 3.19982C12.998 2.67222 13.6066 2.31849 14.308 2.13863C15.0095 1.95877 15.7079 1.95877 16.4034 2.13863C17.0989 2.31849 17.7104 2.67222 18.238 3.19982C18.6217 3.57153 18.9155 4.0062 19.1193 4.50381C19.3232 5.00143 19.4251 5.51703 19.4251 6.05062C19.4251 6.58421 19.3232 7.09682 19.1193 7.58844C18.9155 8.08006 18.6217 8.51773 18.238 8.90143Z" fill="black"/>
</svg>
