<svg width="20" height="20" viewBox="0 0 20 20" fill="none" xmlns="http://www.w3.org/2000/svg">
<path d="M18.5065 13.3708C17.2012 13.3708 15.9491 13.171 14.7503 12.7714C14.6304 12.7314 14.5172 12.7115 14.4106 12.7115C14.1309 12.7115 13.8845 12.8114 13.6714 13.0112L11.3537 15.3288C9.86184 14.5696 8.52318 13.5972 7.3377 12.4118C6.15222 11.2263 5.17986 9.88761 4.42062 8.39577L6.7383 6.07809C6.8715 5.93157 6.96141 5.76507 7.00803 5.57859C7.05465 5.39211 7.05132 5.20562 6.99804 5.01915C6.59844 3.7937 6.39864 2.54162 6.39864 1.2629C6.39864 0.96986 6.29541 0.72011 6.08895 0.513651C5.88249 0.30719 5.63274 0.20396 5.3397 0.20396H1.66337C1.37033 0.20396 1.12058 0.30719 0.914121 0.513651C0.707661 0.72011 0.604431 0.96986 0.604431 1.2629C0.604431 3.68714 1.07063 6.00483 2.00303 8.21595C2.90879 10.3605 4.18752 12.2586 5.8392 13.9103C7.49088 15.5619 9.38898 16.8407 11.5335 17.7464C13.7446 18.6788 16.069 19.145 18.5065 19.145C18.7862 19.145 19.0293 19.0418 19.2358 18.8353C19.4423 18.6289 19.5455 18.3858 19.5455 18.1061V14.4098C19.5455 14.13 19.4423 13.8869 19.2358 13.6805C19.0293 13.474 18.7862 13.3708 18.5065 13.3708ZM2.74229 2.30186H4.32071C4.40064 3.24758 4.56048 4.15334 4.80024 5.01915L3.52151 6.29787C3.09527 4.97919 2.83553 3.64718 2.74229 2.30186ZM17.4476 17.0072C16.0623 16.9139 14.7303 16.6475 13.4516 16.208L14.7103 14.9492C15.6028 15.2023 16.5152 15.3621 17.4476 15.4287V17.0072ZM16.3886 3.3608V0.20396H14.2907V3.3608H11.1339V5.4587H14.2907V8.63553H16.3886V5.4587H19.5455V3.3608H16.3886Z" fill="black"/>
</svg>
