<svg width="21" height="21" viewBox="0 0 21 21" fill="none" xmlns="http://www.w3.org/2000/svg">
<path d="M20.3006 14.8306C20.1807 14.7241 19.8144 14.471 19.2017 14.0714C18.3492 13.5119 17.6099 13.0657 16.9839 12.7327C16.1048 12.2665 15.5054 12.0601 15.1857 12.1133C14.9459 12.1666 14.7195 12.2865 14.5064 12.473C14.3599 12.5929 14.1134 12.8593 13.7671 13.2722C13.5673 13.5253 13.4008 13.7251 13.2676 13.8716C12.8813 13.7384 12.515 13.5852 12.1687 13.412C11.2496 12.9725 10.4271 12.3897 9.70118 11.6638C8.97524 10.9378 8.39249 10.1153 7.95293 9.19625C7.77977 8.83661 7.62659 8.47031 7.49339 8.09735C7.65323 7.95083 7.85303 7.78433 8.09279 7.59785C8.50571 7.25152 8.77211 7.0051 8.89199 6.85858C9.07847 6.64546 9.19835 6.41902 9.25163 6.17926C9.30491 5.85958 9.09845 5.26018 8.63225 4.38106C8.29925 3.75502 7.85303 3.01576 7.29359 2.16328C6.90731 1.56388 6.65423 1.19758 6.53435 1.06438C6.41447 0.877897 6.25463 0.728048 6.05483 0.614828C5.85503 0.501608 5.64191 0.438337 5.41547 0.425018C5.13575 0.425018 4.73615 0.651457 4.21666 1.10434C3.76378 1.50394 3.27094 2.02342 2.73814 2.66278C2.2453 3.24886 1.82239 3.81496 1.46941 4.36108C1.11643 4.9072 0.939941 5.26684 0.939941 5.44C0.939941 5.74636 1.0132 6.19258 1.15972 6.77866C1.42612 7.88422 1.88566 9.03641 2.53834 10.2352C3.45742 11.9002 4.70285 13.5253 6.27461 15.1103C7.85969 16.6688 9.47807 17.9075 11.1298 18.8266C12.3286 19.4793 13.4807 19.9388 14.5863 20.2052C15.1724 20.3518 15.6186 20.425 15.925 20.425C16.0981 20.425 16.4578 20.2485 17.0039 19.8955C17.55 19.5426 18.1161 19.1197 18.7022 18.6268C19.3415 18.094 19.861 17.6012 20.2606 17.1483C20.7135 16.6288 20.9399 16.2292 20.9399 15.9495C20.9266 15.7231 20.8634 15.5099 20.7501 15.3101C20.6369 15.1103 20.4871 14.9505 20.3006 14.8306ZM15.845 19.0864C15.4321 19.0464 14.9326 18.9398 14.3465 18.7667C13.3609 18.4603 12.3485 18.0008 11.3096 17.3881C9.91097 16.5622 8.54567 15.49 7.21367 14.1713C5.88167 12.826 4.80275 11.454 3.9769 10.0554C3.35086 9.00311 2.89132 7.98413 2.59828 6.99844C2.42512 6.42568 2.31856 5.93284 2.2786 5.51992C3.15772 4.13464 4.20334 2.89588 5.41547 1.80364L5.51537 1.92352C6.44777 3.18892 7.24697 4.53424 7.91297 5.95948C7.68653 6.18592 7.46009 6.39238 7.23365 6.57886C6.86069 6.85858 6.52103 7.1716 6.21467 7.51793L6.05483 7.75768L6.11477 8.01743C6.24797 8.63015 6.46109 9.21623 6.75413 9.77567C7.26029 10.8279 7.92962 11.7703 8.76212 12.6028C9.59462 13.4353 10.537 14.1047 11.5893 14.6108C12.1487 14.9039 12.7348 15.117 13.3475 15.2502L13.6073 15.3101L13.847 15.1503C14.1934 14.8439 14.5064 14.5043 14.7861 14.1313H14.8061C15.1258 13.745 15.3189 13.5186 15.3855 13.452C16.8241 14.118 18.176 14.9172 19.4414 15.8496L19.5613 15.9495C18.4691 17.1616 17.2303 18.2072 15.845 19.0864Z" fill="black"/>
</svg>
