<svg width="15" height="14" viewBox="0 0 15 14" fill="none" xmlns="http://www.w3.org/2000/svg">
<path d="M13.9267 11.9762L11.3972 9.44468C11.7792 8.94119 12.0727 8.38874 12.2776 7.78734C12.4826 7.18594 12.5851 6.56823 12.5851 5.9342C12.5851 5.1603 12.4383 4.41904 12.1449 3.71042C11.8514 3.00179 11.4321 2.37475 10.8871 1.8293C10.342 1.28385 9.71314 0.864265 9.0004 0.57056C8.28766 0.276853 7.54696 0.13 6.77832 0.13C6.00967 0.13 5.27131 0.276853 4.56322 0.57056C3.85514 0.864265 3.22625 1.28618 2.67655 1.83629C1.94051 2.57289 1.4374 3.44935 1.16721 4.46566C0.915653 5.44468 0.915653 6.42371 1.16721 7.40273C1.4374 8.41904 1.94051 9.2955 2.67655 10.0321C3.22625 10.5822 3.85514 11.0041 4.56322 11.2978C5.27131 11.5915 6.012 11.7384 6.78531 11.7384C7.41886 11.7384 8.0361 11.6358 8.63704 11.4307C9.23798 11.2256 9.79001 10.9319 10.2931 10.5496L12.8227 13.081C12.9717 13.2302 13.1534 13.3048 13.3677 13.3048C13.582 13.3048 13.766 13.2302 13.9197 13.081C14.0735 12.9319 14.1503 12.7477 14.1503 12.5286C14.1503 12.3095 14.0758 12.1253 13.9267 11.9762ZM3.7806 8.9272C3.24022 8.38641 2.8722 7.74772 2.67655 7.01112C2.49021 6.29317 2.49021 5.57522 2.67655 4.85727C2.8722 4.12068 3.24022 3.48198 3.7806 2.94119C4.18123 2.54026 4.64009 2.23256 5.15718 2.01811C5.67426 1.80366 6.21464 1.69643 6.77832 1.69643C7.34199 1.69643 7.88237 1.80366 8.39946 2.01811C8.91655 2.23256 9.37541 2.53792 9.77603 2.9342C10.1767 3.33047 10.4841 3.78734 10.6984 4.30482C10.9127 4.82231 11.0198 5.36543 11.0198 5.9342C11.0198 6.50296 10.9127 7.04375 10.6984 7.55657C10.4841 8.06939 10.1767 8.52627 9.77603 8.9272C9.37541 9.32813 8.91888 9.63583 8.40645 9.85028C7.89402 10.0647 7.35364 10.172 6.78531 10.172C6.21697 10.172 5.67426 10.0647 5.15718 9.85028C4.64009 9.63583 4.18123 9.32813 3.7806 8.9272Z" fill="white"/>
</svg>
