<svg width="23" height="23" viewBox="0 0 23 23" fill="none" xmlns="http://www.w3.org/2000/svg">
<path d="M8.2081 1.29484C8.79418 0.782019 9.46084 0.437696 10.2081 0.261873C10.9554 0.0860481 11.7026 0.0860481 12.4499 0.261873C13.1971 0.437696 13.8711 0.782019 14.4718 1.29484C14.926 1.69044 15.4608 1.91022 16.0762 1.95418C16.8528 2.01279 17.5671 2.24356 18.2191 2.64649C18.8711 3.04942 19.3986 3.57689 19.8015 4.2289C20.2044 4.88092 20.4352 5.60253 20.4938 6.39374C20.5524 6.99447 20.7795 7.52927 21.1751 7.99814C21.6733 8.58422 22.0103 9.25455 22.1861 10.0091C22.3619 10.7637 22.3619 11.5146 22.1861 12.2619C22.0103 13.0091 21.6733 13.6758 21.1751 14.2619C20.7795 14.7307 20.5524 15.2655 20.4938 15.8663C20.4352 16.6575 20.2044 17.3791 19.8015 18.0311C19.3986 18.6831 18.8711 19.2106 18.2191 19.6135C17.5671 20.0165 16.8528 20.2472 16.0762 20.3058C15.4608 20.3498 14.926 20.5696 14.4718 20.9652C13.8711 21.478 13.1971 21.8223 12.4499 21.9981C11.7026 22.174 10.9554 22.174 10.2081 21.9981C9.46084 21.8223 8.79418 21.478 8.2081 20.9652C7.73923 20.5696 7.19711 20.3498 6.58172 20.3058C5.80517 20.2472 5.09088 20.0165 4.43887 19.6135C3.78685 19.2106 3.25938 18.6831 2.85645 18.0311C2.45352 17.3791 2.22275 16.6575 2.16414 15.8663C2.10553 15.2655 1.87843 14.7307 1.48282 14.2619C0.984654 13.6758 0.647658 13.0055 0.471834 12.2509C0.29601 11.4963 0.29601 10.7454 0.471834 9.99814C0.647658 9.25088 0.984654 8.58422 1.48282 7.99814C1.89308 7.52927 2.12019 6.99447 2.16414 6.39374C2.22275 5.60253 2.45352 4.88092 2.85645 4.2289C3.25938 3.57689 3.78685 3.04942 4.43887 2.64649C5.09088 2.24356 5.80517 2.01279 6.58172 1.95418C7.19711 1.91022 7.73923 1.69044 8.2081 1.29484ZM13.1751 2.81132C12.633 2.35711 12.0176 2.13 11.329 2.13C10.6403 2.13 10.0323 2.35711 9.5048 2.81132C8.69894 3.48532 7.78319 3.86627 6.75755 3.95418C6.05425 3.99814 5.45718 4.2692 4.96634 4.76737C4.4755 5.26554 4.2081 5.85894 4.16414 6.54759C4.07623 7.58788 3.69528 8.50363 3.02128 9.29484C2.56707 9.82231 2.33997 10.434 2.33997 11.13C2.33997 11.826 2.56707 12.4377 3.02128 12.9652C3.69528 13.7564 4.07623 14.6721 4.16414 15.7124C4.2081 16.4011 4.4755 16.9945 4.96634 17.4926C5.45718 17.9908 6.05425 18.2619 6.75755 18.3058C7.78319 18.3937 8.69894 18.7747 9.5048 19.4487C10.0323 19.9029 10.6403 20.13 11.329 20.13C12.0176 20.13 12.6257 19.9029 13.1532 19.4487C13.959 18.7747 14.8821 18.3937 15.9224 18.3058C16.611 18.2619 17.2008 17.9908 17.6916 17.4926C18.1825 16.9945 18.4572 16.4011 18.5158 15.7124C18.5891 14.6721 18.9627 13.7564 19.6367 12.9652C20.0909 12.4377 20.318 11.826 20.318 11.13C20.318 10.434 20.0909 9.82231 19.6367 9.29484C18.9627 8.50363 18.5891 7.58788 18.5158 6.54759C18.4572 5.85894 18.1825 5.26554 17.6916 4.76737C17.2008 4.2692 16.611 3.99814 15.9224 3.95418C14.8821 3.86627 13.9663 3.48532 13.1751 2.81132ZM15.3949 8.17396C15.5854 8.37909 15.6806 8.61718 15.6806 8.88825C15.6806 9.15931 15.5854 9.3974 15.3949 9.60253L10.9114 14.086C10.7209 14.2765 10.4865 14.3718 10.2081 14.3718C9.92971 14.3718 9.69528 14.2765 9.5048 14.086L7.26304 11.8443C7.07257 11.6392 6.97733 11.4011 6.97733 11.13C6.97733 10.8589 7.07257 10.6245 7.26304 10.4267C7.45352 10.2289 7.68795 10.13 7.96634 10.13C8.24473 10.13 8.47916 10.2252 8.66964 10.4157L10.2081 11.9542L13.9883 8.17396C14.1788 7.98348 14.4132 7.88825 14.6916 7.88825C14.97 7.88825 15.2044 7.98348 15.3949 8.17396Z" fill="#FF782C"/>
</svg>
