<svg width="17" height="21" viewBox="0 0 17 21" fill="none" xmlns="http://www.w3.org/2000/svg">
<path d="M8.74512 2.048C8.21232 2.048 7.71615 2.1812 7.25661 2.44761C6.79707 2.714 6.43077 3.07697 6.15771 3.53652C5.88465 3.99606 5.74812 4.49889 5.74812 5.04501C5.74812 5.59113 5.88465 6.09396 6.15771 6.5535C6.43077 7.01304 6.79707 7.37601 7.25661 7.64241C7.71615 7.90881 8.21565 8.04201 8.75511 8.04201C9.29457 8.04201 9.79407 7.90881 10.2536 7.64241C10.7132 7.37601 11.0795 7.01304 11.3525 6.5535C11.6256 6.09396 11.7621 5.59113 11.7621 5.04501C11.7621 4.49889 11.6256 3.99606 11.3525 3.53652C11.0795 3.07697 10.7132 2.714 10.2536 2.44761C9.79407 2.1812 9.29124 2.048 8.74512 2.048ZM3.75012 5.04501C3.75012 4.13925 3.97323 3.30342 4.41945 2.53752C4.86567 1.77161 5.47173 1.16555 6.23763 0.719334C7.00353 0.273113 7.83936 0.0500031 8.74512 0.0500031C9.65088 0.0500031 10.4867 0.273113 11.2526 0.719334C12.0185 1.16555 12.6279 1.77161 13.0808 2.53752C13.5337 3.30342 13.7601 4.13925 13.7601 5.04501C13.7601 5.95077 13.5337 6.7866 13.0808 7.5525C12.6279 8.3184 12.0185 8.92779 11.2526 9.38067C10.4867 9.83355 9.65088 10.0567 8.74512 10.05C7.83936 10.0433 7.00353 9.8169 6.23763 9.37068C5.47173 8.92446 4.86567 8.3184 4.41945 7.5525C3.97323 6.7866 3.75012 5.95077 3.75012 5.04501ZM2.83103 18.052H14.6792C14.5193 17.1196 14.1564 16.2704 13.5903 15.5045C13.0242 14.7386 12.3282 14.1426 11.5024 13.7163C10.6499 13.2768 9.73413 13.057 8.75511 13.057C7.77609 13.057 6.86034 13.2768 6.00786 13.7163C5.1687 14.1426 4.4694 14.7386 3.90996 15.5045C3.35052 16.2704 2.99088 17.1196 2.83103 18.052ZM0.753113 19.051C0.753113 17.5991 1.11941 16.2538 1.85201 15.015C2.55797 13.8029 3.51036 12.8439 4.70916 12.1379C5.96124 11.4186 7.30989 11.059 8.75511 11.059C10.2003 11.059 11.5423 11.4186 12.7811 12.1379C13.9932 12.8439 14.9522 13.8029 15.6582 15.015C16.3908 16.2538 16.7571 17.5991 16.7571 19.051C16.7571 19.3307 16.6572 19.5672 16.4574 19.7603C16.2576 19.9534 16.0245 20.05 15.7581 20.05H1.75211C1.47239 20.05 1.23596 19.9534 1.04282 19.7603C0.849683 19.5672 0.753113 19.3307 0.753113 19.051Z" fill="black"/>
</svg>
