<svg width="14" height="17" viewBox="0 0 14 17" fill="none" xmlns="http://www.w3.org/2000/svg">
<path d="M6.99608 2.30836C6.56984 2.30836 6.17291 2.41492 5.80527 2.62804C5.43764 2.84116 5.1446 3.13154 4.92615 3.49917C4.70771 3.8668 4.59848 4.26907 4.59848 4.70597C4.59848 5.14286 4.70771 5.54513 4.92615 5.91276C5.1446 6.28039 5.43764 6.57077 5.80527 6.78389C6.17291 6.99701 6.57251 7.10357 7.00408 7.10357C7.43564 7.10357 7.83525 6.99701 8.20288 6.78389C8.57051 6.57077 8.86355 6.28039 9.082 5.91276C9.30045 5.54513 9.40967 5.14286 9.40967 4.70597C9.40967 4.26907 9.30045 3.8668 9.082 3.49917C8.86355 3.13154 8.57051 2.84116 8.20288 2.62804C7.83525 2.41492 7.43298 2.30836 6.99608 2.30836ZM3.00008 4.70597C3.00008 3.98136 3.17857 3.31269 3.53554 2.69997C3.89252 2.08725 4.37737 1.6024 4.99009 1.24543C5.60281 0.88845 6.27148 0.709961 6.99608 0.709961C7.72069 0.709961 8.38936 0.88845 9.00208 1.24543C9.6148 1.6024 10.1023 2.08725 10.4646 2.69997C10.8269 3.31269 11.0081 3.98136 11.0081 4.70597C11.0081 5.43057 10.8269 6.09924 10.4646 6.71196C10.1023 7.32468 9.6148 7.81219 9.00208 8.1745C8.38936 8.5368 7.72069 8.71529 6.99608 8.70996C6.27148 8.70463 5.60281 8.52348 4.99009 8.1665C4.37737 7.80953 3.89252 7.32468 3.53554 6.71196C3.17857 6.09924 3.00008 5.43057 3.00008 4.70597ZM2.26482 15.1116H11.7433C11.6155 14.3656 11.3251 13.6863 10.8722 13.0736C10.4193 12.4609 9.86255 11.984 9.20188 11.643C8.51989 11.2914 7.78729 11.1156 7.00408 11.1156C6.22086 11.1156 5.48826 11.2914 4.80627 11.643C4.13495 11.984 3.57551 12.4609 3.12795 13.0736C2.6804 13.6863 2.39269 14.3656 2.26482 15.1116ZM0.602478 15.9108C0.602478 14.7493 0.895518 13.673 1.4816 12.682C2.04637 11.7123 2.80827 10.9451 3.76731 10.3803C4.76898 9.80487 5.8479 9.51715 7.00408 9.51715C8.16025 9.51715 9.23385 9.80487 10.2249 10.3803C11.1946 10.9451 11.9618 11.7123 12.5266 12.682C13.1126 13.673 13.4057 14.7493 13.4057 15.9108C13.4057 16.1345 13.3258 16.3237 13.1659 16.4782C13.0061 16.6327 12.8196 16.71 12.6065 16.71H1.40168C1.1779 16.71 0.988758 16.6327 0.834246 16.4782C0.679734 16.3237 0.602478 16.1345 0.602478 15.9108Z" fill="#FF782C"/>
</svg>
