<svg width="14" height="14" viewBox="0 0 14 14" fill="none" xmlns="http://www.w3.org/2000/svg">
<path d="M7.28079 3.61572C9.12649 3.61572 10.6499 5.13916 10.6499 6.98486C10.6499 8.85986 9.12649 10.354 7.28079 10.354C5.40579 10.354 3.91165 8.85986 3.91165 6.98486C3.91165 5.13916 5.40579 3.61572 7.28079 3.61572ZM7.28079 9.18213C8.48196 9.18213 9.44876 8.21533 9.44876 6.98486C9.44876 5.78369 8.48196 4.81689 7.28079 4.81689C6.05032 4.81689 5.08352 5.78369 5.08352 6.98486C5.08352 8.21533 6.07962 9.18213 7.28079 9.18213ZM11.5581 3.49854C11.5581 3.93799 11.2066 4.28955 10.7671 4.28955C10.3277 4.28955 9.9761 3.93799 9.9761 3.49854C9.9761 3.05908 10.3277 2.70752 10.7671 2.70752C11.2066 2.70752 11.5581 3.05908 11.5581 3.49854ZM13.7847 4.28955C13.8433 5.37354 13.8433 8.62549 13.7847 9.70947C13.7261 10.7642 13.4917 11.6724 12.73 12.4634C11.9683 13.2251 11.0308 13.4595 9.9761 13.5181C8.89212 13.5767 5.64017 13.5767 4.55618 13.5181C3.50149 13.4595 2.59329 13.2251 1.80227 12.4634C1.04056 11.6724 0.806181 10.7642 0.747587 9.70947C0.688993 8.62549 0.688993 5.37354 0.747587 4.28955C0.806181 3.23486 1.04056 2.29736 1.80227 1.53564C2.59329 0.773926 3.50149 0.539551 4.55618 0.480957C5.64017 0.422363 8.89212 0.422363 9.9761 0.480957C11.0308 0.539551 11.9683 0.773926 12.73 1.53564C13.4917 2.29736 13.7261 3.23486 13.7847 4.28955ZM12.3784 10.8521C12.73 10.0024 12.6421 7.95166 12.6421 6.98486C12.6421 6.04736 12.73 3.99658 12.3784 3.11768C12.1441 2.56104 11.7046 2.09229 11.148 1.88721C10.2691 1.53564 8.21829 1.62354 7.28079 1.62354C6.31399 1.62354 4.26321 1.53564 3.4136 1.88721C2.82767 2.12158 2.38821 2.56104 2.15384 3.11768C1.80227 3.99658 1.89017 6.04736 1.89017 6.98486C1.89017 7.95166 1.80227 10.0024 2.15384 10.8521C2.38821 11.438 2.82767 11.8774 3.4136 12.1118C4.26321 12.4634 6.31399 12.3755 7.28079 12.3755C8.21829 12.3755 10.2691 12.4634 11.148 12.1118C11.7046 11.8774 12.1734 11.438 12.3784 10.8521Z" fill="black"/>
</svg>
