<svg width="16" height="24" viewBox="0 0 16 24" fill="none" xmlns="http://www.w3.org/2000/svg">
<path d="M13.0487 0.884766C14.2167 0.884766 15.205 1.87305 15.205 3.04102V21.7285C15.205 22.9414 14.2167 23.8848 13.0487 23.8848H2.98621C1.77332 23.8848 0.829956 22.9414 0.829956 21.7285V3.04102C0.829956 1.87305 1.77332 0.884766 2.98621 0.884766H13.0487ZM8.01746 22.4473C8.78113 22.4473 9.45496 21.8184 9.45496 21.0098C9.45496 20.2461 8.78113 19.5723 8.01746 19.5723C7.20886 19.5723 6.57996 20.2461 6.57996 21.0098C6.57996 21.8184 7.20886 22.4473 8.01746 22.4473ZM13.0487 17.5957V3.58008C13.0487 3.31055 12.7792 3.04102 12.5096 3.04102H3.52527C3.21082 3.04102 2.98621 3.31055 2.98621 3.58008V17.5957C2.98621 17.9102 3.21082 18.1348 3.52527 18.1348H12.5096C12.7792 18.1348 13.0487 17.9102 13.0487 17.5957Z" fill="black"/>
</svg>
