<svg width="15" height="16" viewBox="0 0 15 16" fill="none" xmlns="http://www.w3.org/2000/svg">
<path d="M14.5502 7.98486C14.5502 11.9985 11.2983 15.2505 7.28461 15.2505C6.52289 15.2505 5.79047 15.1626 5.11664 14.9282C5.40961 14.4595 5.84906 13.6685 6.02485 13.0239C6.11274 12.7017 6.4643 11.2954 6.4643 11.2954C6.69867 11.7642 7.4018 12.145 8.13422 12.145C10.3315 12.145 11.9135 10.1235 11.9135 7.6333C11.9135 5.23096 9.95063 3.41455 7.4311 3.41455C4.29633 3.41455 2.62641 5.52393 2.62641 7.80908C2.62641 8.89307 3.18305 10.2114 4.09125 10.6509C4.23774 10.7095 4.32563 10.6802 4.35492 10.5337C4.35492 10.4458 4.50141 9.94775 4.56 9.71338C4.56 9.65479 4.56 9.56689 4.50141 9.5083C4.20844 9.15674 3.97406 8.48291 3.97406 7.83838C3.97406 6.25635 5.17524 4.70361 7.25531 4.70361C9.01313 4.70361 10.2729 5.90479 10.2729 7.6626C10.2729 9.62549 9.2768 10.9731 7.98774 10.9731C7.28461 10.9731 6.75727 10.3872 6.90375 9.68408C7.10883 8.80518 7.51899 7.86768 7.51899 7.25244C7.51899 6.6958 7.22602 6.22705 6.61078 6.22705C5.87836 6.22705 5.29242 6.98877 5.29242 7.98486C5.29242 8.62939 5.4975 9.06885 5.4975 9.06885C5.4975 9.06885 4.79438 12.1157 4.64789 12.6724C4.50141 13.3169 4.56 14.1958 4.6186 14.7524C1.92328 13.6978 0.0189867 11.0903 0.0189867 7.98486C0.0189867 3.97119 3.27094 0.719238 7.28461 0.719238C11.2983 0.719238 14.5502 3.97119 14.5502 7.98486Z" fill="black"/>
</svg>
