<svg width="16" height="15" viewBox="0 0 16 15" fill="none" xmlns="http://www.w3.org/2000/svg">
<path d="M13.75 0.809217H1.95866C1.69756 0.809217 1.45279 0.874492 1.22433 1.00504C0.995866 1.13559 0.816362 1.31509 0.685813 1.54355C0.555265 1.77201 0.48999 2.01679 0.48999 2.27789V11.1319C0.48999 11.393 0.555265 11.6354 0.685813 11.8592C0.816362 12.083 0.995866 12.2625 1.22433 12.3977C1.45279 12.5329 1.69756 12.6005 1.95866 12.6005H8.60265V11.1319H1.95866V3.76055L7.86132 7.43922L13.75 3.76055V7.43922H15.2326V2.27789C15.2326 2.01679 15.165 1.77201 15.0298 1.54355C14.8946 1.31509 14.7151 1.13559 14.4913 1.00504C14.2675 0.874492 14.0204 0.809217 13.75 0.809217ZM7.86132 5.97055L1.95866 2.27789H13.75L7.86132 5.97055ZM13.0226 8.92188L15.96 11.8592L13.0226 14.8105V12.6005H10.0713V11.1319H13.0226V8.92188Z" fill="white"/>
</svg>
