<svg width="16" height="14" viewBox="0 0 16 14" fill="none" xmlns="http://www.w3.org/2000/svg">
<path d="M14.2347 3.93799C14.2347 4.08447 14.2347 4.20166 14.2347 4.34814C14.2347 8.42041 11.1586 13.0786 5.50427 13.0786C3.74646 13.0786 2.13513 12.5806 0.787476 11.7017C1.02185 11.731 1.25623 11.7603 1.5199 11.7603C2.95544 11.7603 4.2738 11.2622 5.32849 10.4419C3.98083 10.4126 2.83826 9.53369 2.4574 8.30322C2.66248 8.33252 2.83826 8.36182 3.04333 8.36182C3.30701 8.36182 3.59998 8.30322 3.83435 8.24463C2.4281 7.95166 1.37341 6.72119 1.37341 5.22705V5.19775C1.78357 5.43213 2.28162 5.54932 2.77966 5.57861C1.93005 5.02197 1.40271 4.08447 1.40271 3.02979C1.40271 2.44385 1.54919 1.9165 1.81287 1.47705C3.3363 3.32275 5.62146 4.55322 8.17029 4.69971C8.11169 4.46533 8.0824 4.23096 8.0824 3.99658C8.0824 2.29736 9.45935 0.92041 11.1586 0.92041C12.0375 0.92041 12.8285 1.27197 13.4144 1.88721C14.0883 1.74072 14.7621 1.47705 15.348 1.12549C15.1136 1.85791 14.6449 2.44385 14.0004 2.82471C14.6156 2.76611 15.2308 2.59033 15.7582 2.35596C15.348 2.97119 14.8207 3.49854 14.2347 3.93799Z" fill="black"/>
</svg>
