<svg width="40" height="25" viewBox="0 0 40 25" fill="none" xmlns="http://www.w3.org/2000/svg">
<path d="M24.5652 12.2427C24.9814 12.3426 25.4185 12.2884 25.8764 12.0803C26.3342 11.8722 26.7546 11.535 27.1376 11.0688C27.5205 10.6027 27.8119 10.0615 28.0117 9.44549C28.2115 8.7795 28.2864 8.14264 28.2365 7.53492C28.1865 6.9272 28.0325 6.40689 27.7744 5.974C27.5164 5.5411 27.1792 5.24141 26.763 5.07491C26.3467 4.97501 25.9263 5.04577 25.5017 5.28719C25.0772 5.52862 24.6859 5.89075 24.3279 6.37359C23.9699 6.85644 23.6869 7.41005 23.4788 8.03441C23.2707 8.65878 23.1791 9.2665 23.2041 9.85757C23.229 10.4486 23.3581 10.9565 23.5912 11.381C23.8243 11.8056 24.1489 12.0928 24.5652 12.2427ZM29.735 14.5903C30.0014 15.0065 30.1679 15.4311 30.2345 15.864C30.3011 16.2469 30.2844 16.6715 30.1845 17.1377C30.1346 17.4374 30.0097 17.9036 29.8099 18.5363C29.5435 19.4187 29.3603 20.1264 29.2604 20.6591C29.1106 21.8912 28.7942 22.8736 28.3114 23.6062C27.8619 24.2555 27.3374 24.6468 26.738 24.78C26.1386 24.9132 25.5725 24.7883 25.0397 24.4054C24.6901 24.139 24.432 23.756 24.2655 23.2565C24.1489 22.9568 24.0407 22.4657 23.9408 21.783C23.8409 21.2003 23.7493 20.7757 23.6661 20.5093C23.5495 20.0598 23.3789 19.6851 23.1541 19.3854C22.9293 19.0857 22.6172 18.811 22.2176 18.5613C21.9678 18.3948 21.5849 18.1866 21.0687 17.9369C20.4527 17.6539 20.0198 17.4124 19.77 17.2126C19.3538 16.9129 19.0707 16.555 18.9209 16.1387C18.7044 15.556 18.7461 14.9982 19.0458 14.4654C19.3455 13.9326 19.8783 13.558 20.6441 13.3415C21.5099 13.0918 22.5589 13.0918 23.791 13.3415C24.3238 13.4081 25.073 13.4331 26.0387 13.4165C26.7213 13.4165 27.2125 13.4331 27.5122 13.4664C27.995 13.4997 28.403 13.5996 28.736 13.7661C29.1356 13.9326 29.4686 14.2073 29.735 14.5903ZM34.2804 17.862C33.6144 17.862 32.99 17.9702 32.4073 18.1866C31.8245 18.4031 31.3625 18.6903 31.0212 19.0483C30.6798 19.4062 30.5092 19.7892 30.5092 20.1971C30.5092 20.605 30.6798 20.988 31.0212 21.346C31.3625 21.7039 31.8245 21.9911 32.4073 22.2076C32.99 22.424 33.6144 22.5323 34.2804 22.5323C34.9464 22.5323 35.5666 22.424 36.141 22.2076C36.7154 21.9911 37.1733 21.7039 37.5146 21.346C37.8559 20.988 38.0266 20.6092 38.0266 20.2096C37.9766 19.7934 37.781 19.4062 37.4397 19.0483C37.0983 18.6903 36.6488 18.4031 36.091 18.1866C35.5333 17.9702 34.9297 17.862 34.2804 17.862ZM34.7549 11.6183C34.1388 11.9346 33.6144 12.3301 33.1815 12.8046C32.7486 13.2791 32.4572 13.7744 32.3074 14.2906C32.1575 14.8067 32.1866 15.2688 32.3948 15.6767C32.6029 16.0846 32.9484 16.3885 33.4312 16.5883C33.9141 16.7881 34.4802 16.8547 35.1295 16.7881C35.7788 16.7215 36.4365 16.505 37.1025 16.1387C37.7186 15.839 38.243 15.4602 38.6759 15.0024C39.1088 14.5445 39.396 14.0741 39.5375 13.5913C39.6791 13.1085 39.6458 12.6631 39.4376 12.2551C39.2295 11.8472 38.884 11.5392 38.4012 11.3311C37.9183 11.123 37.3564 11.0439 36.7154 11.0938C36.0744 11.1438 35.4209 11.3186 34.7549 11.6183ZM29.5851 11.7931C29.8848 12.0928 30.2927 12.251 30.8089 12.2676C31.325 12.2843 31.8786 12.1552 32.4697 11.8805C33.0608 11.6058 33.6102 11.2145 34.118 10.7067C34.6258 10.1989 35.0046 9.64945 35.2544 9.05838C35.5041 8.46731 35.6123 7.91787 35.579 7.41005C35.5457 6.90223 35.3751 6.49014 35.0671 6.1738C34.759 5.85745 34.347 5.69511 33.8308 5.68679C33.3147 5.67846 32.7611 5.81166 32.17 6.08638C31.5789 6.36111 31.0295 6.75238 30.5217 7.2602C30.0138 7.76802 29.6351 8.3133 29.3853 8.89604C29.1356 9.47879 29.0273 10.0282 29.0606 10.5444C29.0939 11.0605 29.2688 11.4768 29.5851 11.7931ZM12.1527 9.82011C11.903 9.60366 11.7365 9.2998 11.6532 8.90853C11.57 8.51726 11.5866 8.08436 11.7032 7.60984C11.8197 7.13532 12.0279 6.68994 12.3276 6.27369C12.6606 5.82415 13.0352 5.47034 13.4514 5.21227C13.8677 4.9542 14.2797 4.80851 14.6877 4.77521C15.0956 4.74191 15.4494 4.82516 15.7491 5.02496C16.132 5.3413 16.2861 5.8408 16.2111 6.52344C16.1362 7.20609 15.8656 7.8804 15.3994 8.5464C15.0998 8.96264 14.7543 9.30396 14.363 9.57036C13.9717 9.83676 13.5805 9.99493 13.1892 10.0449C12.7979 10.0948 12.4524 10.0199 12.1527 9.82011ZM8.20672 7.59736C7.80713 7.61401 7.44916 7.70558 7.13281 7.87208C6.86641 8.02193 6.60001 8.23837 6.33362 8.52142C6.18377 8.70457 5.95067 9.00427 5.63432 9.42051C5.18478 10.0199 4.81016 10.4778 4.51046 10.7941C3.79452 11.4768 3.31167 12.1428 3.06193 12.7921C2.84548 13.3915 2.84132 13.916 3.04944 14.3655C3.25756 14.8151 3.61137 15.1231 4.11086 15.2896C4.44386 15.3895 4.81016 15.3728 5.20975 15.2396C5.4595 15.173 5.8258 15.0149 6.30864 14.7651V14.7401C6.72489 14.5403 7.04123 14.3988 7.25768 14.3156C7.60733 14.1824 7.932 14.1158 8.2317 14.1158C8.53139 14.1158 8.85607 14.1907 9.20571 14.3405C9.42216 14.4071 9.73851 14.557 10.1548 14.7901C10.6376 15.0398 10.9956 15.198 11.2287 15.2646C11.6283 15.3978 11.9946 15.4145 12.3276 15.3146C12.8104 15.1647 13.1517 14.8692 13.3515 14.4279C13.5513 13.9867 13.543 13.4664 13.3265 12.867C13.0768 12.201 12.5773 11.5267 11.8281 10.8441C11.5284 10.5277 11.1537 10.0532 10.7042 9.42051C10.3879 8.98762 10.1464 8.6796 9.97993 8.49645C9.73018 8.2134 9.47211 7.99695 9.20571 7.8471C8.90602 7.6806 8.57302 7.59736 8.20672 7.59736ZM3.93604 6.22375C4.25239 6.65664 4.47716 7.11035 4.61036 7.58487C4.74356 8.05939 4.77686 8.49228 4.71026 8.88356C4.64366 9.27483 4.47716 9.5662 4.21076 9.75767C3.94437 9.94915 3.61553 10.0199 3.22426 9.96996C2.83299 9.92001 2.43339 9.76183 2.02547 9.49544C1.61755 9.22904 1.25542 8.87939 0.939072 8.4465C0.622725 8.0136 0.39379 7.55989 0.252266 7.08537C0.110743 6.61085 0.0774431 6.17796 0.152367 5.78669C0.227292 5.39542 0.389627 5.10821 0.639375 4.92506C1.08892 4.67531 1.6342 4.67115 2.27522 4.91257C2.91624 5.15399 3.46985 5.59105 3.93604 6.22375ZM7.7322 2.97703C7.8321 3.50982 7.82794 4.03013 7.71972 4.53795C7.61149 5.04577 7.42834 5.47034 7.17027 5.81166C6.9122 6.15298 6.60001 6.35278 6.23372 6.41106C5.86742 6.46933 5.50529 6.39024 5.14732 6.1738C4.78935 5.95735 4.48132 5.62435 4.22325 5.17481C3.96518 4.72526 3.79452 4.20079 3.71127 3.6014C3.61137 3.05195 3.60721 2.53164 3.69878 2.04048C3.79036 1.5493 3.95685 1.14138 4.19828 0.816713C4.4397 0.492041 4.74356 0.300568 5.10985 0.242294C5.47615 0.184019 5.83828 0.263105 6.19626 0.479553C6.55423 0.696001 6.87057 1.02067 7.1453 1.45357C7.42002 1.88647 7.61565 2.39429 7.7322 2.97703ZM10.0798 6.37359C9.74683 6.32364 9.4513 6.13633 9.19322 5.81166C8.93515 5.48699 8.75617 5.07075 8.65627 4.56293C8.55637 4.05511 8.54804 3.51398 8.63129 2.93957C8.71454 2.36515 8.8852 1.85733 9.14328 1.41611C9.40135 0.974886 9.70521 0.646051 10.0549 0.429604C10.4045 0.213156 10.7541 0.129908 11.1038 0.179857C11.4534 0.229807 11.7531 0.42128 12.0029 0.754276C12.2526 1.08727 12.4275 1.50768 12.5274 2.0155C12.6273 2.52332 12.6356 3.06028 12.5523 3.62637C12.4691 4.19247 12.2984 4.69612 12.0403 5.13734C11.7823 5.57856 11.4784 5.9074 11.1288 6.12385C10.7791 6.34029 10.4295 6.42354 10.0798 6.37359Z" fill="#FF782C"/>
</svg>
