<svg width="1520" height="42" viewBox="0 0 1520 42" fill="none" xmlns="http://www.w3.org/2000/svg">
<path d="M1519.6 26.92V12.4307L1516.99 12.3515C1505.51 12.0348 1492.76 10.6888 1486.98 9.34281C1484.05 8.7094 1481.2 8.47187 1479.07 8.86775C1477.25 9.26363 1475.03 9.26363 1474.16 8.94693C1472.42 8.31352 1469.09 8.31352 1442.41 9.34281C1433.7 9.65952 1425.95 9.81787 1425.15 9.81787C1419.93 9.42199 1415.89 9.65952 1415.89 10.4513C1415.89 10.8472 1415.1 11.0055 1414.07 10.768C1413.12 10.6096 1410.27 10.2929 1407.74 10.0554C1405.2 9.89705 1402.43 9.50116 1401.64 9.26363C1400.85 9.0261 1399.74 9.26363 1399.19 9.89705C1397.6 11.3222 1393.17 11.4806 1391.11 10.0554C1390.16 9.42199 1389.77 8.86775 1390.16 8.86775C1390.64 8.86775 1393.09 8.47187 1395.7 8.07599C1402.12 7.04669 1418.03 5.46316 1421.28 5.54234C1422.78 5.54234 1426.42 5.14646 1429.43 4.51305C1432.52 3.95881 1435.6 3.6421 1436.32 3.72128C1437.03 3.87963 1439.88 4.19634 1442.65 4.43387C1446.45 4.82975 1447.64 4.6714 1447.32 3.87963C1447.16 3.40457 1445.66 2.85034 1443.92 2.85034C1434.73 2.45446 1422.86 2.53363 1422.23 2.92952C1421.91 3.16705 1411.85 3.48375 1399.9 3.72128C1378.76 4.03799 1374.01 3.3254 1390 2.13775C1393.96 1.82105 1397.45 1.42516 1397.68 1.26681C1398.4 0.475045 1341.08 1.10846 1339.18 1.90022C1335.14 3.48375 1328.65 4.90893 1325.64 4.90893C1323.98 4.90893 1320.5 5.46316 1317.96 6.09658C1313.61 7.20505 1309.97 7.6801 1310.68 6.96752C1311.23 6.41328 1322.63 4.11716 1324.61 4.11716C1325.72 4.11716 1326.43 3.6421 1326.43 2.92952C1326.43 2.2961 1325.96 1.74187 1325.4 1.74187C1323.82 1.74187 1312.26 3.95881 1304.27 5.77987C1297.38 7.28422 1286.22 7.91763 1284.55 6.88834C1284.16 6.72999 1280.36 7.3634 1276.08 8.47187C1271.81 9.58034 1267.3 10.5305 1266.11 10.6096C1265 10.6888 1264.13 11.0055 1264.37 11.4014C1264.92 12.1932 1262.39 13.3808 1258.75 14.0142C1254 14.806 1252.81 15.2019 1252.81 16.0728C1252.81 16.4687 1253.36 16.7854 1254 16.7854C1254.63 16.7854 1255.18 17.1813 1255.18 17.5772C1255.18 18.0522 1254.39 18.3689 1253.36 18.3689C1252.33 18.3689 1249.4 18.7648 1246.87 19.319C1243.55 19.9525 1242.68 20.3483 1243.78 20.7442C1247.43 22.0902 1202.14 24.4655 1154.64 25.4948C1102.71 26.6033 1012.14 26.5241 1012.14 25.4156C1012.14 24.7822 1011.83 24.7822 1011.11 25.3365C1010 26.2866 981.346 26.4449 975.725 25.574L972.163 25.0198L975.725 24.4655C977.704 24.228 1021.48 23.7529 1073.1 23.5154C1124.72 23.2779 1177.2 22.7236 1189.87 22.3278C1224.7 21.2193 1254.23 17.973 1251.86 15.5186C1251.62 15.3602 1249.17 15.5186 1246.4 15.9145C1239.75 16.9438 1218.85 18.9232 1208.87 19.4774C1173.33 21.4568 987.125 21.9319 967.413 20.1108C943.583 17.973 933.213 16.627 929.017 15.2019C922.683 13.0641 919.754 12.589 919.121 13.6183C918.883 14.0142 918.25 14.2518 917.854 13.935C917.458 13.6975 915.796 13.3808 914.133 13.1433C912.55 12.9849 909.779 12.5099 908.038 12.114C900.438 10.3721 887.613 8.07599 885.317 8.07599C884.525 8.07599 883.892 8.39269 883.892 8.86775C883.892 9.73869 884.288 9.81787 894.975 11.7181C904.317 13.3016 908.75 14.4101 908.196 14.8852C907.958 15.1227 905.029 14.7268 901.625 14.0934C890.383 11.8765 887.533 11.4014 881.517 10.4513C878.271 9.97622 874.154 9.10528 872.413 8.47187C870.671 7.83846 866.713 7.3634 863.704 7.28422C860.617 7.28422 856.896 6.88834 855.392 6.41328C853.888 6.0174 847.475 5.46316 841.142 5.22563C834.808 4.9881 829.504 4.51305 829.425 4.03799C829.267 3.6421 828.792 3.48375 828.475 3.72128C827.842 4.11716 821.983 3.48375 813.038 2.05857C809.079 1.42516 785.883 1.26681 784.379 1.90022C783.588 2.13775 783.429 2.45446 783.983 2.45446C784.538 2.53363 784.854 2.85034 784.617 3.24622C784.379 3.6421 785.329 4.11716 786.754 4.35469C788.1 4.59222 791.425 5.06728 794.038 5.54234C796.65 6.0174 802.192 6.57163 806.308 6.80916C810.425 7.04669 815.096 7.44258 816.6 7.60093C818.104 7.75928 822.142 8.15516 825.467 8.47187C828.871 8.78858 831.642 9.34281 831.642 9.73869C831.642 10.0554 827.05 10.2929 821.35 10.2138C815.729 10.1346 811.058 9.81787 811.058 9.50116C811.058 9.18446 810.108 9.26363 809 9.73869C807.813 10.1346 806.308 10.2929 805.596 10.1346C803.933 9.58034 781.133 8.7094 771.554 8.7094C767.2 8.7094 763.796 9.10528 763.242 9.65952C762.608 10.2929 764.667 10.5305 771.079 10.3721C779.392 10.2138 790.792 11.0847 803.854 12.8266C807.179 13.2225 811.613 13.7767 813.829 14.0142C818.658 14.4893 823.488 15.8353 820.796 15.9145C819.846 15.9936 818.896 16.3103 818.579 16.7854C818.342 17.1813 816.363 17.4188 814.304 17.3396C812.167 17.2605 810.742 16.9438 811.217 16.7062C812.642 15.8353 810.267 15.0435 808.05 15.5978C805.2 16.3895 793.642 16.7854 793.642 16.0728C793.642 15.8353 788.338 15.6769 781.767 15.7561C773.533 15.9145 769.892 15.6769 769.892 15.1227C769.892 14.4893 769.496 14.4893 768.704 15.2019C768.071 15.7561 766.646 15.9145 765.379 15.6769C764.192 15.4394 759.838 15.1227 755.8 15.0435C751.763 14.9643 748.279 14.6476 748.042 14.2518C747.804 13.8559 747.25 13.7767 746.854 14.0934C745.508 14.8852 729.596 15.2019 729.121 14.4893C728.963 14.0934 726.588 14.4101 724.054 15.2019C721.442 16.0728 715.663 16.9438 711.15 17.1813C706.717 17.4188 701.888 17.8147 700.621 18.0522C699.275 18.2106 696.663 18.5273 694.604 18.6065C692.625 18.7648 690.567 19.1607 690.092 19.4774C689.538 19.7941 688.192 19.5566 687.163 18.844C686.133 18.1314 684.629 17.5772 683.917 17.5772C683.125 17.5772 681.938 17.0229 681.304 16.4687C680.196 15.4394 678.85 15.4394 670.933 16.3895C659.533 17.8147 652.804 18.844 647.183 19.8733C644.808 20.2692 637.446 21.0609 630.954 21.536C610.925 23.1195 610.925 23.1195 613.142 22.4069C614.646 21.8527 613.854 21.6943 609.817 21.6152C606.096 21.536 604.196 21.8527 603.325 22.7236C602.692 23.357 601.742 23.9113 601.108 23.9113C600.554 23.9113 596.042 25.3365 590.975 26.9992C574.904 32.4623 561.446 34.5209 551.313 33.0166C549.254 32.6999 544.979 32.9374 541.813 33.4125C528.117 35.6294 442.696 35.7878 435.967 33.5708C434.621 33.0958 433.433 33.0166 433.433 33.4125C433.433 33.7292 428.367 33.8875 422.113 33.7292C412.138 33.4916 406.992 33.0958 388.704 31.2747C386.092 31.0372 381.975 30.7996 379.6 30.7205C372.396 30.4829 361.075 29.2953 359.808 28.6619C359.096 28.266 355.929 27.7909 352.683 27.4742C349.438 27.1575 345.242 26.6033 343.342 26.2074C341.442 25.8115 337.721 25.4156 335.029 25.4156C329.963 25.3365 319.117 24.0696 317.058 23.357C315.554 22.8028 313.654 23.0403 313.1 23.9113C312.863 24.3072 311.279 24.3072 309.538 23.9113C307.796 23.5154 304.233 22.8028 301.621 22.3278C295.367 21.0609 289.113 18.0522 284.204 13.935C281.671 11.7973 281.354 11.7973 270.192 11.6389C263.938 11.6389 255.625 11.7973 251.746 12.114C247.629 12.4307 244.067 12.3515 243.275 11.9556C242.325 11.4806 241.85 11.4806 241.85 12.0348C241.85 12.5099 238.05 12.8266 231.321 12.8266C225.621 12.8266 220.158 12.8266 219.288 12.9058C218.417 12.9058 217.467 13.3016 217.15 13.8559C216.833 14.4101 216.517 14.4893 216.517 13.935C216.517 13.46 214.933 13.2225 212.717 13.3016C210.658 13.3808 207.333 13.1433 205.275 12.7474C202.504 12.2723 201 12.3515 199.338 13.2225C196.804 14.5685 194.192 14.7268 193.163 13.6975C192.688 13.3016 191.658 12.8266 190.788 12.6682C188.096 12.114 206.225 9.73869 223.246 8.39269C225.858 8.23434 229.896 7.75928 232.271 7.3634C234.646 6.96752 239.238 6.96752 242.483 7.3634C245.808 7.75928 248.658 7.83846 248.896 7.6801C250.004 6.49246 246.917 5.77987 240.267 5.70069C231.242 5.54234 207.967 6.41328 206.146 6.96752C205.433 7.12587 203.929 6.96752 202.742 6.57163C201.633 6.09658 200.683 6.0174 200.683 6.3341C200.683 6.72999 196.013 7.04669 190.313 7.04669C179.388 7.20505 177.329 6.17575 186.829 5.46316C204.008 4.11716 221.029 2.2961 222.058 1.66269C222.771 1.18763 214.538 1.02928 200.288 1.26681C173.846 1.66269 161.417 2.21693 156.35 3.3254C154.371 3.72128 149.858 4.19634 146.296 4.43387C142.654 4.6714 139.329 5.06728 138.854 5.30481C137.271 6.3341 129.038 7.99681 125.713 8.07599C123.892 8.07599 121.438 8.47187 120.25 8.86775C118.35 9.58034 113.521 10.5305 105.683 11.6389C103.308 12.0348 103.388 11.8765 106.475 10.9263C110.671 9.58034 122.863 7.28422 125.792 7.28422C127.138 7.28422 127.85 6.88834 127.85 6.0174C127.85 4.90893 127.296 4.75058 124.446 5.22563C116.925 6.3341 111.146 7.3634 102.517 9.10528C97.5292 10.2138 93.0167 10.768 92.6209 10.4513C91.1959 9.42199 81.7751 10.2138 74.7292 11.9556C70.9293 12.9058 66.8126 13.6183 65.4667 13.6183C64.1209 13.6183 62.0626 14.0142 60.9542 14.4101C59.1334 15.1227 58.8959 15.0435 59.2917 14.0142C59.6083 13.0641 58.8167 12.8266 54.3834 12.7474C44.0125 12.589 39.8959 13.1433 26.1209 16.7062C18.3626 18.6856 16.8583 18.7648 13.6126 17.0229C12.1876 16.3103 10.7625 15.7561 10.4459 15.8353C9.73334 16.0728 5.69586 13.935 2.84589 11.8765C1.81671 11.0847 0.629211 10.4513 0.312561 10.4513C-0.083313 10.4513 -0.399963 17.4188 -0.399963 25.8907V41.3301H1519.6V26.92ZM958.704 24.703C955.458 24.1488 956.092 24.0696 962.425 24.228C966.7 24.228 970.183 24.5447 970.183 24.9406C970.183 25.6532 963.85 25.574 958.704 24.703ZM604.196 23.357C604.75 23.1987 605.858 23.1987 606.571 23.357C607.363 23.5946 606.888 23.7529 605.621 23.7529C604.275 23.7529 603.721 23.5946 604.196 23.357ZM1255.74 20.19C1256.29 20.0316 1257.24 20.0316 1257.72 20.19C1258.27 20.4275 1257.88 20.5859 1256.77 20.5859C1255.66 20.5859 1255.26 20.4275 1255.74 20.19ZM1250.59 20.19C1251.38 20.0316 1252.65 20.0316 1253.36 20.19C1254.15 20.4275 1253.52 20.5859 1252.02 20.5859C1250.51 20.5859 1249.88 20.4275 1250.59 20.19ZM909.304 14.7268C908.513 14.0142 912.075 14.4893 913.183 15.2019C914.054 15.8353 913.738 15.9145 911.996 15.5186C910.65 15.2019 909.463 14.8852 909.304 14.7268ZM98.5584 12.0348C99.1917 11.6389 100.458 11.3222 101.329 11.3222C102.596 11.4014 102.596 11.4806 100.933 12.0348C98.1625 12.9058 97.1334 12.9058 98.5584 12.0348ZM832.433 9.50116C832.433 8.86775 840.271 9.50116 841.063 10.2138C841.3 10.3721 839.4 10.4513 836.946 10.3721C834.492 10.2929 832.433 9.89705 832.433 9.50116ZM1297.54 8.86775C1299.75 7.91763 1301.26 7.91763 1300.7 8.86775C1300.47 9.34281 1299.28 9.65952 1298.09 9.58034C1296.19 9.58034 1296.11 9.50116 1297.54 8.86775ZM1303.87 8.07599C1305.14 7.6801 1307.04 7.12587 1307.99 6.88834C1309.1 6.49246 1309.81 6.65081 1309.81 7.12587C1309.81 8.07599 1307.51 8.63022 1303.87 8.7094H1301.5L1303.87 8.07599ZM174.954 6.49246C177.013 5.62152 179.308 5.54234 179.308 6.3341C179.308 6.72999 177.963 7.04669 176.3 7.12587C174.004 7.12587 173.688 6.96752 174.954 6.49246ZM818.421 4.43387C818.658 4.19634 819.371 4.11716 819.925 4.35469C820.558 4.59222 820.321 4.82975 819.45 4.82975C818.579 4.90893 818.104 4.6714 818.421 4.43387ZM1374.33 3.24622C1375.6 2.85034 1376.94 2.85034 1377.34 3.24622C1377.65 3.56293 1376.63 3.87963 1374.96 3.87963C1371.95 3.95881 1371.95 3.95881 1374.33 3.24622ZM810.821 3.56293C811.375 3.40457 812.325 3.40457 812.8 3.56293C813.354 3.80046 812.958 3.95881 811.85 3.95881C810.742 3.95881 810.346 3.80046 810.821 3.56293ZM787.308 2.85034C787.308 2.69199 788.021 2.53363 788.971 2.53363C789.842 2.53363 790.396 2.85034 790.079 3.3254C789.683 3.95881 787.308 3.56293 787.308 2.85034ZM793.879 2.85034C794.117 2.61281 794.829 2.53363 795.383 2.77116C796.017 3.00869 795.779 3.24622 794.908 3.24622C794.038 3.3254 793.563 3.08787 793.879 2.85034Z" fill="white"/>
</svg>
